#!OML:ASF F:\VICON\USERDATA\INSTALL\rory3\rory3.ASF
:FULLY-SPECIFIED
:DEGREES
3124
root 0.887057 9.9131 -8.03677 -24.1436 -1.76665 0.437287
lowerback 34.5644 0.256496 -2.13775
upperback 15.1347 -0.462035 -1.6788
thorax -0.912388 -0.286573 -0.482252
lowerneck -6.58347 -8.3357 -14.0435
upperneck 1.33687 -10.5838 13.6531
head 2.97307 -5.05392 5.84296
rclavicle 8.15017e-015 1.23246e-014
rhumerus 12.5674 37.8269 -55.714
rradius 74.0641
rwrist 14.8577
rhand -40.5365 10.498
rfingers 7.12502
rthumb -13.4849 -19.0454
lclavicle 8.15017e-015 1.23246e-014
lhumerus 8.07012 -31.95 54.0706
lradius 72.1944
lwrist -5.31455
lhand -19.5859 18.2204
lfingers 7.12502
lthumb 6.73961 48.0931
rfemur -65.8525 -16.7029 -2.21993
rtibia 115.041
rfoot -18.719 9.40387
rtoes -12.3552
lfemur -59.4077 23.0548 7.2399
ltibia 114.021
lfoot -17.8384 -19.6213
ltoes -13.4495
3125
root 0.887755 9.91566 -8.03974 -24.0776 -1.73849 0.405146
lowerback 34.5852 0.234866 -2.08965
upperback 15.1302 -0.475278 -1.698
thorax -0.925469 -0.289274 -0.523453
lowerneck -6.62537 -8.34985 -13.9254
upperneck 1.31833 -10.6024 13.5833
head 2.96632 -5.0627 5.79952
rclavicle -2.78299e-015 3.97569e-016
rhumerus 12.6186 37.83 -55.7587
rradius 74.0402
rwrist 14.8409
rhand -40.7635 10.6933
rfingers 7.12502
rthumb -13.7037 -18.8355
lclavicle -2.78299e-015 3.97569e-016
lhumerus 7.97764 -31.8228 54.1767
lradius 72.3392
lwrist -5.3016
lhand -19.7218 18.2302
lfingers 7.12502
lthumb 6.60841 48.1071
rfemur -65.9017 -16.6623 -2.17368
rtibia 115.031
rfoot -18.6815 9.26114
rtoes -12.3293
lfemur -59.5403 23.0257 7.19616
ltibia 113.983
lfoot -17.7992 -19.5609
ltoes -13.6349
3126
root 0.888797 9.92089 -8.04381 -24.0318 -1.68998 0.441063
lowerback 34.6905 0.230752 -2.13931
upperback 15.0922 -0.500325 -1.71808
thorax -1.00238 -0.302302 -0.51044
lowerneck -6.6813 -8.36002 -13.8327
upperneck 1.35954 -10.6148 13.4867
head 2.97828 -5.06835 5.75094
rclavicle 1.07344e-014 2.3059e-014
rhumerus 12.6441 37.8898 -55.8057
rradius 74.0557
rwrist 14.8469
rhand -40.9653 10.1644
rfingers 7.12502
rthumb -13.8982 -19.3511
lclavicle 1.07344e-014 2.3059e-014
lhumerus 7.8418 -31.651 54.3228
lradius 72.4621
lwrist -5.41941
lhand -19.7883 18.3695
lfingers 7.12502
lthumb 6.54418 48.2484
rfemur -65.9233 -16.6236 -2.21404
rtibia 115.012
rfoot -18.7011 9.13611
rtoes -12.4962
lfemur -59.6413 22.9633 7.05689
ltibia 113.927
lfoot -17.7934 -19.4292
ltoes -13.8213
3127
root 0.889277 9.9246 -8.04755 -23.9912 -1.66024 0.434995
lowerback 34.8346 0.226691 -2.16224
upperback 15.0108 -0.51813 -1.70667
thorax -1.13984 -0.311213 -0.480563
lowerneck -6.62497 -8.36418 -13.8919
upperneck 1.41568 -10.6276 13.5019
head 2.99149 -5.07632 5.76518
rclavicle 1.63003e-014 2.94201e-014
rhumerus 12.5641 37.9785 -55.8985
rradius 74.1187
rwrist 14.835
rhand -40.8176 9.89933
rfingers 7.12502
rthumb -13.7559 -19.6259
lclavicle 1.63003e-014 2.94201e-014
lhumerus 7.54176 -31.4821 54.5938
lradius 72.6333
lwrist -5.55498
lhand -19.7015 18.5433
lfingers 7.12502
lthumb 6.62801 48.4196
rfemur -65.9457 -16.5468 -2.1943
rtibia 114.985
rfoot -18.7276 9.0623
rtoes -12.6662
lfemur -59.7272 22.9502 6.99843
ltibia 113.876
lfoot -17.7092 -19.4357
ltoes -13.75
3128
root 0.890072 9.92755 -8.04944 -23.9852 -1.64151 0.437756
lowerback 34.9037 0.210931 -2.17723
upperback 15.0145 -0.545107 -1.71661
thorax -1.15933 -0.324778 -0.474746
lowerneck -6.62793 -8.34598 -13.9503
upperneck 1.4356 -10.6022 13.5543
head 3.00085 -5.06273 5.79261
rclavicle -4.37326e-015 -4.77083e-015
rhumerus 12.5765 37.9863 -55.9816
rradius 74.1744
rwrist 14.8638
rhand -40.737 10.2436
rfingers 7.12502
rthumb -13.6782 -19.2869
lclavicle -4.37326e-015 -4.77083e-015
lhumerus 7.31544 -31.2853 54.7709
lradius 72.8411
lwrist -5.56458
lhand -19.6277 18.6584
lfingers 7.12502
lthumb 6.69921 48.5324
rfemur -65.9328 -16.4616 -2.20045
rtibia 114.957
rfoot -18.7152 9.01646
rtoes -12.6576
lfemur -59.708 22.941 6.97861
ltibia 113.839
lfoot -17.6183 -19.5257
ltoes -13.4688
3129
root 0.889274 9.93038 -8.05131 -23.9695 -1.65022 0.444141
lowerback 34.8791 0.218349 -2.21297
upperback 15.0818 -0.545173 -1.722
thorax -1.07708 -0.327606 -0.462033
lowerneck -6.68964 -8.32802 -13.9145
upperneck 1.39403 -10.5685 13.527
head 2.99039 -5.04455 5.77979
rclavicle -3.97569e-016 7.95139e-016
rhumerus 12.6434 37.9067 -56.0238
rradius 74.2398
rwrist 14.9585
rhand -40.876 10.2543
rfingers 7.12502
rthumb -13.8121 -19.2671
lclavicle -3.97569e-016 7.95139e-016
lhumerus 7.21922 -31.0757 54.8702
lradius 73.0056
lwrist -5.59302
lhand -19.6201 18.6076
lfingers 7.12502
lthumb 6.70658 48.4814
rfemur -65.9523 -16.3724 -2.16377
rtibia 114.923
rfoot -18.6734 8.87269
rtoes -12.7968
lfemur -59.7033 22.9722 6.96387
ltibia 113.804
lfoot -17.5822 -19.5147
ltoes -13.499
3130
root 0.888233 9.93358 -8.05384 -23.9037 -1.62893 0.500287
lowerback 34.8882 0.250715 -2.31088
upperback 15.0684 -0.535189 -1.71382
thorax -1.09274 -0.327788 -0.405158
lowerneck -6.7037 -8.32701 -13.9006
upperneck 1.38545 -10.5616 13.4566
head 2.98393 -5.04226 5.75584
rclavicle -1.74931e-014 -3.02153e-014
rhumerus 12.5607 37.8822 -56.0805
rradius 74.3514
rwrist 15.0752
rhand -41.0104 10.0454
rfingers 7.12502
rthumb -13.9417 -19.4672
lclavicle -1.74931e-014 -3.02153e-014
lhumerus 7.00147 -30.9256 55.0824
lradius 73.167
lwrist -5.69064
lhand -19.7933 18.4306
lfingers 7.12502
lthumb 6.53933 48.3096
rfemur -66.0393 -16.3288 -2.18187
rtibia 114.9
rfoot -18.6151 8.76013
rtoes -13.0436
lfemur -59.7851 23.0016 6.83878
ltibia 113.756
lfoot -17.5513 -19.4535
ltoes -13.5998
3131
root 0.888152 9.93909 -8.05587 -23.8679 -1.55219 0.655221
lowerback 34.9959 0.288666 -2.50489
upperback 15.0127 -0.553557 -1.73035
thorax -1.1864 -0.344493 -0.314679
lowerneck -6.68685 -8.32241 -13.9719
upperneck 1.42138 -10.5524 13.4308
head 2.99258 -5.03912 5.76001
rclavicle -7.35503e-015 -1.03368e-014
rhumerus 12.4184 37.9231 -56.1771
rradius 74.466
rwrist 15.1974
rhand -40.9433 10.0772
rfingers 7.12502
rthumb -13.877 -19.4398
lclavicle -7.35503e-015 -1.03368e-014
lhumerus 6.69345 -30.8013 55.3249
lradius 73.3672
lwrist -5.69119
lhand -19.9826 18.2065
lfingers 7.12502
lthumb 6.35657 48.0911
rfemur -66.0659 -16.3115 -2.37319
rtibia 114.874
rfoot -18.5739 8.74715
rtoes -13.1567
lfemur -59.7898 22.9619 6.58395
ltibia 113.698
lfoot -17.5344 -19.4082
ltoes -13.4758
3132
root 0.887052 9.94434 -8.05753 -23.8442 -1.46285 0.809483
lowerback 35.0908 0.336755 -2.71248
upperback 15.0066 -0.562111 -1.74783
thorax -1.22114 -0.357556 -0.221543
lowerneck -6.69972 -8.30619 -14.0089
upperneck 1.41383 -10.5246 13.4259
head 2.99025 -5.02534 5.76643
rclavicle -5.36719e-015 8.74653e-015
rhumerus 12.3667 37.9051 -56.2495
rradius 74.55
rwrist 15.2399
rhand -40.7652 10.082
rfingers 7.12502
rthumb -13.7053 -19.4466
lclavicle -5.36719e-015 8.74653e-015
lhumerus 6.51785 -30.6709 55.4533
lradius 73.5842
lwrist -5.63957
lhand -19.8825 18.0003
lfingers 7.12502
lthumb 6.45322 47.882
rfemur -66.0845 -16.3003 -2.57003
rtibia 114.845
rfoot -18.5266 8.7138
rtoes -13.3569
lfemur -59.7809 22.8967 6.33502
ltibia 113.646
lfoot -17.5387 -19.3572
ltoes -13.404
3133
root 0.885951 9.94901 -8.05976 -23.7638 -1.45152 0.768178
lowerback 35.0846 0.353801 -2.7255
upperback 15.0386 -0.542139 -1.7226
thorax -1.18382 -0.35 -0.194876
lowerneck -6.83546 -8.26838 -13.9432
upperneck 1.4753 -10.4637 13.3694
head 3.01534 -4.991 5.73802
rclavicle 6.55989e-015 1.90833e-014
rhumerus 12.3791 37.8098 -56.2917
rradius 74.6361
rwrist 15.1793
rhand -40.6805 10.0815
rfingers 7.12502
rthumb -13.6237 -19.4527
lclavicle 6.55989e-015 1.90833e-014
lhumerus 6.52215 -30.596 55.4257
lradius 73.7862
lwrist -5.56051
lhand -19.7824 18.0632
lfingers 7.12502
lthumb 6.54991 47.9419
rfemur -66.1651 -16.2195 -2.48982
rtibia 114.809
rfoot -18.4628 8.57872
rtoes -13.5034
lfemur -59.8778 22.9149 6.32005
ltibia 113.595
lfoot -17.5044 -19.3743
ltoes -13.4622
3134
root 0.885551 9.95359 -8.06156 -23.6561 -1.50021 0.617374
lowerback 35.0859 0.329733 -2.62045
upperback 15.0256 -0.538518 -1.68939
thorax -1.2003 -0.344563 -0.216302
lowerneck -6.90727 -8.19752 -13.9249
upperneck 1.55484 -10.3661 13.3583
head 3.03573 -4.93977 5.73674
rclavicle -5.76476e-015 -1.59028e-015
rhumerus 12.3079 37.7697 -56.3894
rradius 74.7679
rwrist 15.0867
rhand -40.702 10.3149
rfingers 7.12502
rthumb -13.6444 -19.2179
lclavicle -5.76476e-015 -1.59028e-015
lhumerus 6.4308 -30.5263 55.417
lradius 73.9767
lwrist -5.49829
lhand -19.7673 18.256
lfingers 7.12502
lthumb 6.56448 48.1343
rfemur -66.2616 -16.071 -2.24951
rtibia 114.758
rfoot -18.3935 8.3888
rtoes -13.5351
lfemur -60.0381 22.9914 6.46171
ltibia 113.562
lfoot -17.3726 -19.4984
ltoes -13.1814
3135
root 0.884997 9.95929 -8.06366 -23.5669 -1.51264 0.544819
lowerback 35.1903 0.326571 -2.60593
upperback 14.9754 -0.54171 -1.65813
thorax -1.29028 -0.345792 -0.190091
lowerneck -6.8941 -8.14925 -13.9354
upperneck 1.5404 -10.2994 13.3447
head 3.01991 -4.90766 5.74084
rclavicle -1.59028e-015 7.95139e-015
rhumerus 12.1764 37.7666 -56.478
rradius 74.9169
rwrist 15.0541
rhand -40.8181 10.4993
rfingers 7.12502
rthumb -13.7563 -19.0259
lclavicle -1.59028e-015 7.95139e-015
lhumerus 6.19881 -30.4191 55.5408
lradius 74.1826
lwrist -5.54063
lhand -19.6592 18.3668
lfingers 7.12502
lthumb 6.6688 48.2418
rfemur -66.3538 -15.956 -2.10376
rtibia 114.692
rfoot -18.2885 8.23374
rtoes -13.7452
lfemur -60.1819 23.0417 6.51091
ltibia 113.546
lfoot -17.2712 -19.6053
ltoes -12.6261
3136
root 0.884233 9.9653 -8.0657 -23.4631 -1.49372 0.474341
lowerback 35.274 0.336634 -2.61427
upperback 14.9617 -0.531683 -1.59728
thorax -1.3329 -0.343483 -0.125436
lowerneck -6.97274 -8.16996 -13.8587
upperneck 1.5526 -10.3154 13.1807
head 3.02432 -4.91636 5.67307
rclavicle -1.78906e-015 -4.77083e-015
rhumerus 12.1367 37.7142 -56.4653
rradius 75.0528
rwrist 15.0568
rhand -40.8723 10.4379
rfingers 7.12502
rthumb -13.8085 -19.0838
lclavicle -1.78906e-015 -4.77083e-015
lhumerus 6.00965 -30.3042 55.6924
lradius 74.4227
lwrist -5.50574
lhand -19.5911 18.3467
lfingers 7.12502
lthumb 6.73456 48.2196
rfemur -66.449 -15.8895 -1.97935
rtibia 114.638
rfoot -18.194 8.11445
rtoes -13.8205
lfemur -60.3214 23.0795 6.52195
ltibia 113.522
lfoot -17.2307 -19.6618
ltoes -12.0985
3137
root 0.883018 9.96946 -8.06538 -23.3564 -1.50599 0.329771
lowerback 35.2749 0.323509 -2.52753
upperback 14.978 -0.517011 -1.5367
thorax -1.31671 -0.33508 -0.112411
lowerneck -6.95147 -8.17026 -13.7856
upperneck 1.49247 -10.3111 13.0278
head 2.98913 -4.91858 5.61588
rclavicle 4.77083e-015 1.74931e-014
rhumerus 12.085 37.664 -56.4755
rradius 75.2194
rwrist 14.9561
rhand -40.8922 10.1255
rfingers 7.12502
rthumb -13.8277 -19.3949
lclavicle 4.77083e-015 1.74931e-014
lhumerus 5.8051 -30.2059 55.8219
lradius 74.7151
lwrist -5.41993
lhand -19.5421 18.1212
lfingers 7.12502
lthumb 6.78183 47.9926
rfemur -66.5225 -15.819 -1.78836
rtibia 114.622
rfoot -18.1649 8.01602
rtoes -13.8279
lfemur -60.4432 23.1495 6.64462
ltibia 113.497
lfoot -17.1767 -19.7526
ltoes -11.5971
3138
root 0.881582 9.97246 -8.06485 -23.2528 -1.50774 0.243993
lowerback 35.2464 0.308082 -2.47501
upperback 15.0281 -0.516899 -1.52876
thorax -1.25345 -0.333747 -0.131975
lowerneck -6.93957 -8.11341 -13.7648
upperneck 1.38485 -10.2291 13.0208
head 2.94286 -4.87892 5.61968
rclavicle 4.77083e-015 -5.56597e-015
rhumerus 12.0742 37.5993 -56.5251
rradius 75.3971
rwrist 14.8129
rhand -41.0708 9.81628
rfingers 7.12502
rthumb -13.9999 -19.6923
lclavicle 4.77083e-015 -5.56597e-015
lhumerus 5.6491 -30.096 55.8619
lradius 75.0106
lwrist -5.42703
lhand -19.5349 17.8887
lfingers 7.12502
lthumb 6.78881 47.7599
rfemur -66.6107 -15.7893 -1.6769
rtibia 114.623
rfoot -18.146 7.9901
rtoes -14.252
lfemur -60.5678 23.2067 6.70212
ltibia 113.48
lfoot -17.2087 -19.7866
ltoes -11.6477
